<?xml version="1.0" standalone="no"?>
<!DOCTYPE svg PUBLIC "-//W3C//DTD SVG 20010904//EN"
 "http://www.w3.org/TR/2001/REC-SVG-20010904/DTD/svg10.dtd">
<svg version="1.0" xmlns="http://www.w3.org/2000/svg"
 width="300.000000pt" height="300.000000pt" viewBox="0 0 300.000000 300.000000"
 preserveAspectRatio="xMidYMid meet">
<metadata>
Created by potrace 1.14, written by Peter Selinger 2001-2017
</metadata>
<g transform="translate(0.000000,300.000000) scale(0.100000,-0.100000)"
fill="#000000" stroke="none">
<path d="M478 2963 c-3 -7 -2 -2215 1 -2234 1 -3 161 -5 356 -5 l355 0 0 96
c0 131 -24 180 -124 254 -92 69 -103 79 -161 151 -97 120 -156 290 -156 451 0
385 291 657 629 588 217 -44 357 -214 346 -419 -4 -69 -55 -185 -81 -185 -10
0 -13 5 -8 18 81 210 -20 425 -226 478 -236 61 -470 -108 -497 -360 -20 -189
56 -362 224 -505 126 -108 262 -151 457 -146 140 4 236 25 350 78 269 124 477
386 522 657 4 25 9 54 11 65 6 32 6 186 -1 230 -3 22 -15 75 -25 117 -79 311
-328 558 -657 650 -76 22 -96 22 -695 26 -339 2 -618 -1 -620 -5z"/>
<path d="M811 344 c-144 -42 -163 -224 -31 -292 79 -41 188 -16 230 53 47 77
22 186 -52 226 -37 20 -104 26 -147 13z m93 -75 c29 -14 50 -65 41 -102 -16
-64 -99 -82 -142 -32 -27 30 -29 64 -8 105 21 41 60 51 109 29z"/>
<path d="M1214 344 c-84 -21 -136 -104 -118 -187 18 -83 93 -133 185 -123 62
6 108 23 110 40 0 6 1 36 1 66 l1 55 -40 3 -40 3 2 -41 c1 -30 -3 -43 -15 -50
-45 -24 -120 24 -120 76 0 74 67 114 136 80 33 -15 35 -15 59 6 19 17 22 24
13 35 -32 39 -106 55 -174 37z"/>
<path d="M2 192 l0 -158 36 2 c21 1 40 2 45 3 4 1 7 19 7 42 0 32 3 40 18 38
68 -6 102 2 136 35 28 26 36 41 36 69 0 89 -54 125 -192 126 l-87 1 1 -158z
m176 76 c13 -12 16 -46 4 -65 -4 -6 -26 -13 -50 -16 l-42 -4 0 47 0 48 38 0
c20 0 43 -5 50 -10z"/>
<path d="M358 344 c-3 -5 -5 -76 -4 -159 l1 -149 43 -1 c44 -1 49 6 43 67 -2
13 5 18 23 18 18 0 33 -12 55 -44 27 -39 33 -43 70 -42 23 0 41 4 41 9 0 4
-12 25 -26 47 l-26 39 26 31 c45 54 35 129 -23 167 -28 18 -214 32 -223 17z
m164 -76 c42 -35 24 -75 -37 -80 -39 -3 -40 -2 -43 30 -2 19 -1 40 2 48 7 17
57 18 78 2z"/>
<path d="M1470 248 c0 -129 19 -179 77 -203 48 -21 125 -15 161 12 44 32 54
66 56 182 l1 106 -42 2 c-27 1 -43 -3 -44 -10 0 -7 -1 -53 -1 -103 -1 -104
-11 -127 -59 -127 -50 0 -59 22 -59 140 l0 103 -45 0 -45 0 0 -102z"/>
<path d="M1852 193 l3 -157 37 -1 c20 -2 39 3 41 9 2 6 3 41 2 79 -1 37 2 67
5 67 6 0 27 -25 116 -136 7 -8 22 -15 35 -16 57 -2 54 -10 54 155 l0 152 -43
3 c-47 4 -46 8 -42 -105 1 -29 -1 -53 -3 -53 -3 0 -35 36 -72 80 -60 72 -70
80 -101 80 l-35 0 3 -157z"/>
<path d="M2232 193 l3 -158 40 0 40 0 0 155 0 155 -43 3 -43 3 3 -158z"/>
<path d="M2378 325 c-7 -36 6 -49 51 -47 27 1 41 -2 41 -11 1 -6 2 -61 3 -122
l2 -110 40 0 40 0 5 120 5 120 31 1 c51 2 63 10 61 41 l-2 28 -137 2 -136 2
-4 -24z"/>
<path d="M2680 342 c0 -4 13 -29 29 -54 66 -104 80 -136 83 -195 l3 -58 40 0
40 0 3 58 c3 50 11 71 58 148 29 49 54 94 54 98 0 5 -17 9 -38 9 -37 1 -40 -2
-73 -59 -19 -32 -37 -59 -40 -59 -3 0 -20 27 -39 60 -33 59 -35 60 -77 60 -24
0 -43 -4 -43 -8z"/>
</g>
</svg>
